<?xml version="1.0" standalone="no"?>
<!DOCTYPE svg PUBLIC "-//W3C//DTD SVG 20010904//EN"
 "http://www.w3.org/TR/2001/REC-SVG-20010904/DTD/svg10.dtd">
<svg version="1.0" xmlns="http://www.w3.org/2000/svg"
 width="420.000000pt" height="420.000000pt" viewBox="0 0 420.000000 420.000000"
 preserveAspectRatio="xMidYMid meet">
<metadata>
Created by potrace 1.14, written by Peter Selinger 2001-2017
</metadata>
<g transform="translate(0.000000,420.000000) scale(0.100000,-0.100000)"
fill="#000000" stroke="none">
<path d="M801 3013 c26 -63 36 -80 67 -110 27 -26 33 -38 30 -65 -1 -18 -9
-38 -17 -44 -11 -8 -16 -35 -18 -85 l-2 -74 18 65 c9 36 23 75 29 87 13 24 18
22 67 -24 40 -38 201 -86 329 -98 123 -12 511 39 643 85 32 10 76 24 98 29 22
5 81 21 130 36 50 14 106 31 125 36 19 5 40 11 45 13 6 2 25 7 43 11 18 4 35
12 38 16 6 11 51 12 57 2 2 -5 2 -2 0 5 -9 37 9 57 71 81 58 22 144 75 91 56
-11 -4 -38 -11 -61 -16 -23 -4 -79 -26 -125 -47 -175 -82 -354 -124 -661 -157
-441 -46 -734 8 -931 171 -37 30 -69 54 -72 54 -2 0 0 -12 6 -27z"/>
<path d="M1405 2870 c-66 -3 -104 -7 -85 -9 57 -4 182 0 230 9 54 9 37 9 -145
0z"/>
<path d="M2792 2566 c-12 -39 -22 -74 -22 -78 0 -4 -5 -19 -11 -35 -6 -15 -9
-28 -8 -28 1 0 -4 -11 -11 -25 -17 -31 -30 -108 -19 -112 5 -2 13 -46 19 -98
9 -85 9 -199 -2 -535 -2 -55 0 -110 4 -122 4 -13 3 -23 -3 -25 -6 -2 -2 -14 9
-28 11 -14 24 -21 28 -17 11 10 21 352 12 375 -4 9 -7 63 -7 120 -1 56 -8 146
-16 200 -30 202 -30 196 2 217 27 18 28 18 13 0 -13 -16 -13 -18 0 -13 11 3
18 34 27 119 17 151 13 173 -15 85z"/>
<path d="M862 2400 c0 -74 2 -167 6 -207 7 -67 7 -71 -9 -54 -9 9 -22 28 -29
40 -7 15 -18 21 -29 18 -14 -3 -17 1 -15 19 1 13 -2 22 -7 18 -8 -5 -13 10 -6
20 1 3 -9 16 -22 29 -12 14 -20 30 -17 35 3 5 -1 15 -9 22 -37 31 40 -149 90
-209 17 -20 22 -31 13 -31 -9 -1 -8 -5 4 -14 10 -7 24 -26 33 -42 15 -29 15
-29 9 19 -4 28 -3 47 3 47 5 0 22 -73 37 -162 33 -198 30 -186 40 -195 5 -4 6
3 3 17 -7 29 -21 181 -21 228 0 17 -3 32 -6 32 -4 0 -6 12 -5 28 1 15 -2 32
-7 39 -6 7 -7 16 -4 22 3 5 -4 53 -15 108 -12 54 -25 145 -29 203 l-6 105 -2
-135z m-33 -244 c-3 -3 -11 5 -18 17 -13 21 -12 21 5 5 10 -10 16 -20 13 -22z"/>
<path d="M2065 2377 c-86 -41 -164 -153 -153 -218 5 -26 7 -23 28 49 17 53 70
116 124 145 54 29 174 31 226 3 45 -24 98 -73 117 -111 9 -16 18 -25 20 -18 3
7 -12 37 -32 67 -47 71 -102 99 -205 103 -63 3 -83 0 -125 -20z"/>
<path d="M2140 2342 c-69 -7 -130 -76 -130 -147 0 -40 32 -110 54 -118 24 -9
26 3 5 36 -10 18 -19 37 -19 42 1 6 7 -2 16 -17 8 -15 25 -30 38 -34 25 -6
120 18 142 37 17 14 18 82 2 112 -10 20 -9 21 5 9 8 -7 25 -32 36 -55 20 -39
21 -40 21 -14 0 36 -22 87 -46 109 -30 26 -85 44 -124 40z m-20 -113 c-14 -25
-46 -24 -60 1 -8 16 -6 24 11 41 l22 22 18 -22 c14 -17 16 -27 9 -42z"/>
<path d="M2840 2280 c-23 -23 -50 -84 -50 -114 0 -13 9 -3 24 29 13 28 33 57
45 65 22 15 29 40 11 40 -5 0 -19 -9 -30 -20z"/>
<path d="M1186 2255 c-55 -19 -107 -64 -133 -116 -24 -47 -30 -103 -12 -114 6
-4 9 -1 8 6 -6 38 49 138 94 170 110 79 264 51 347 -63 17 -22 30 -37 30 -31
0 17 -57 89 -87 111 -73 51 -167 66 -247 37z"/>
<path d="M1222 2200 c-44 -27 -72 -76 -71 -125 1 -74 4 -76 111 -80 96 -4 97
-4 118 23 22 27 24 72 5 117 -8 18 -7 18 6 5 17 -17 36 -63 42 -100 2 -14 5
-2 6 25 3 119 -119 195 -217 135z m32 -56 c12 -12 13 -20 6 -35 -12 -21 -40
-25 -58 -7 -16 16 -15 23 4 42 19 20 29 20 48 0z"/>
<path d="M779 2028 c-7 -15 -4 -48 4 -48 27 0 78 -48 92 -85 13 -35 37 -185
48 -300 7 -70 56 -290 83 -376 57 -180 169 -365 290 -478 91 -86 123 -105 249
-147 107 -37 114 -38 255 -38 120 0 161 4 235 23 176 45 336 126 440 222 l46
42 27 -26 c36 -34 108 -68 207 -97 44 -14 83 -29 86 -34 8 -11 43 0 35 11 -8
14 -68 40 -156 68 -163 52 -199 76 -201 129 0 21 -3 26 -7 14 -4 -9 -30 -41
-58 -71 -39 -41 -78 -67 -165 -111 -159 -79 -273 -107 -462 -114 -141 -5 -151
-4 -232 23 -105 34 -229 103 -275 154 -59 64 -80 91 -80 101 0 6 -4 10 -10 10
-5 0 -10 6 -10 13 0 7 -9 23 -20 34 -23 26 -92 153 -82 153 4 0 0 5 -8 10 -9
6 -10 10 -3 10 6 0 11 9 10 19 -1 16 -4 18 -16 8 -12 -10 -13 -9 -2 11 15 27
17 128 3 145 -5 7 -13 23 -17 37 -4 14 -25 48 -47 77 -70 96 -97 179 -133 423
-13 85 -24 139 -24 120 l-1 -35 -24 36 c-21 30 -73 76 -77 67z"/>
<path d="M3440 1760 c-6 -11 -8 -20 -6 -20 3 0 10 9 16 20 6 11 8 20 6 20 -3
0 -10 -9 -16 -20z"/>
<path d="M950 1723 c0 -12 5 -25 10 -28 13 -8 13 15 0 35 -8 12 -10 11 -10 -7z"/>
<path d="M1585 1708 c3 -18 22 -48 41 -65 30 -30 40 -33 91 -33 74 1 136 28
158 70 20 39 9 58 -16 26 -21 -26 -95 -56 -141 -56 -49 0 -99 27 -111 60 -15
40 -30 38 -22 -2z"/>
<path d="M3115 1591 c0 -55 3 -94 7 -87 9 14 9 145 0 168 -4 10 -7 -27 -7 -81z"/>
<path d="M960 1665 c0 -8 4 -15 10 -15 5 0 7 7 4 15 -4 8 -8 15 -10 15 -2 0
-4 -7 -4 -15z"/>
<path d="M2158 1654 c-30 -9 -20 -21 12 -16 55 8 31 -6 -62 -36 -193 -62 -329
-89 -488 -97 -63 -3 -137 -8 -165 -10 -65 -7 -39 11 37 25 l53 9 -63 -4 c-105
-8 -108 -9 -109 -63 -1 -26 1 -36 4 -22 8 48 11 49 50 14 79 -73 222 -120 333
-111 134 11 226 42 325 108 74 50 145 130 145 165 1 15 7 12 31 -16 l31 -35
-16 39 c-9 22 -18 42 -20 44 -7 7 -80 11 -98 6z m-90 -147 c11 -9 6 -14 -25
-25 -76 -26 -230 -53 -341 -59 -101 -5 -112 -4 -106 10 7 21 24 25 137 42 51
8 103 16 117 19 160 36 189 37 218 13z"/>
<path d="M970 1634 c0 -6 7 -19 16 -30 14 -18 14 -18 3 6 -14 31 -19 36 -19
24z"/>
<path d="M1788 1553 c7 -3 16 -2 19 1 4 3 -2 6 -13 5 -11 0 -14 -3 -6 -6z"/>
<path d="M1728 1543 c6 -2 18 -2 25 0 6 3 1 5 -13 5 -14 0 -19 -2 -12 -5z"/>
<path d="M1603 1533 c9 -2 23 -2 30 0 6 3 -1 5 -18 5 -16 0 -22 -2 -12 -5z"/>
<path d="M2560 1306 c0 -23 59 -82 90 -89 14 -3 59 -15 100 -26 41 -11 76 -21
77 -21 1 0 0 7 -3 15 -4 8 -12 15 -20 15 -19 0 -155 60 -176 78 -10 8 -18 11
-18 7 0 -5 -11 2 -25 15 -21 20 -25 21 -25 6z"/>
<path d="M2516 1075 c4 -11 18 -32 31 -46 13 -14 21 -27 19 -30 -2 -2 5 -5 17
-6 12 0 40 -9 62 -19 22 -10 43 -19 48 -20 4 -1 9 -3 12 -4 3 -1 10 -4 15 -5
6 -1 11 -3 13 -5 1 -1 15 -4 32 -6 16 -3 37 -12 46 -20 15 -13 17 -13 22 0 7
18 -42 56 -73 59 -11 1 -20 4 -20 8 0 4 -15 10 -32 14 -18 4 -46 13 -63 20
-16 7 -46 19 -65 26 -19 7 -43 22 -53 34 -17 20 -17 20 -11 0z"/>
<path d="M3575 779 c-4 -6 -5 -12 -2 -15 2 -3 7 2 10 11 7 17 1 20 -8 4z"/>
<path d="M3494 676 c-10 -8 -16 -17 -13 -20 3 -3 14 3 24 14 21 23 17 26 -11
6z"/>
<path d="M2571 655 c-4 -50 121 -113 294 -150 163 -34 475 32 585 124 36 29
14 26 -54 -9 -31 -17 -62 -27 -68 -24 -6 4 -8 2 -5 -3 4 -6 -3 -11 -16 -11
-12 0 -35 -6 -52 -13 -33 -13 -31 -13 -95 -28 -123 -28 -233 -38 -285 -27 -61
14 -205 63 -200 69 3 4 2 5 -1 2 -9 -6 -91 51 -97 67 -3 7 -6 8 -6 3z"/>
</g>
</svg>
